<mxfile host="app.diagrams.net" modified="2023-10-23T02:02:37.840Z" agent="Mozilla/5.0 (Windows NT 10.0; Win64; x64) AppleWebKit/537.36 (KHTML, like Gecko) Chrome/118.0.0.0 Safari/537.36 Edg/118.0.2088.61" etag="S8ATtcrbL_BAd4UQzRjo" version="22.0.0" type="github">
  <diagram id="C5RBs43oDa-KdzZeNtuy" name="Page-1">
    <mxGraphModel dx="1113" dy="686" grid="1" gridSize="10" guides="1" tooltips="1" connect="1" arrows="1" fold="1" page="1" pageScale="1" pageWidth="827" pageHeight="1169" math="0" shadow="0">
      <root>
        <mxCell id="WIyWlLk6GJQsqaUBKTNV-0" />
        <mxCell id="WIyWlLk6GJQsqaUBKTNV-1" parent="WIyWlLk6GJQsqaUBKTNV-0" />
        <mxCell id="4mD7uL2boiI7pbvksRWZ-2" style="edgeStyle=orthogonalEdgeStyle;rounded=0;orthogonalLoop=1;jettySize=auto;html=1;" edge="1" parent="WIyWlLk6GJQsqaUBKTNV-1" source="4mD7uL2boiI7pbvksRWZ-0" target="4mD7uL2boiI7pbvksRWZ-1">
          <mxGeometry relative="1" as="geometry" />
        </mxCell>
        <mxCell id="4mD7uL2boiI7pbvksRWZ-0" value="MULAI" style="rounded=1;whiteSpace=wrap;html=1;arcSize=50;" vertex="1" parent="WIyWlLk6GJQsqaUBKTNV-1">
          <mxGeometry x="200" y="110" width="160" height="50" as="geometry" />
        </mxCell>
        <mxCell id="4mD7uL2boiI7pbvksRWZ-4" style="edgeStyle=orthogonalEdgeStyle;rounded=0;orthogonalLoop=1;jettySize=auto;html=1;" edge="1" parent="WIyWlLk6GJQsqaUBKTNV-1" source="4mD7uL2boiI7pbvksRWZ-1" target="4mD7uL2boiI7pbvksRWZ-3">
          <mxGeometry relative="1" as="geometry" />
        </mxCell>
        <mxCell id="4mD7uL2boiI7pbvksRWZ-1" value="READ&amp;nbsp;&lt;br&gt;Nama, Gol" style="shape=parallelogram;perimeter=parallelogramPerimeter;whiteSpace=wrap;html=1;fixedSize=1;" vertex="1" parent="WIyWlLk6GJQsqaUBKTNV-1">
          <mxGeometry x="185" y="260" width="190" height="60" as="geometry" />
        </mxCell>
        <mxCell id="4mD7uL2boiI7pbvksRWZ-3" value="Gol = &#39;A&#39;" style="rhombus;whiteSpace=wrap;html=1;" vertex="1" parent="WIyWlLk6GJQsqaUBKTNV-1">
          <mxGeometry x="210" y="360" width="140" height="80" as="geometry" />
        </mxCell>
        <mxCell id="4mD7uL2boiI7pbvksRWZ-6" value="UpahPerJam =&amp;nbsp;" style="rounded=0;whiteSpace=wrap;html=1;" vertex="1" parent="WIyWlLk6GJQsqaUBKTNV-1">
          <mxGeometry x="220" y="500" width="120" height="60" as="geometry" />
        </mxCell>
      </root>
    </mxGraphModel>
  </diagram>
</mxfile>
